<?xml version="1.0" encoding="utf-8"?>
<!-- Generator: Adobe Illustrator 22.0.0, SVG Export Plug-In . SVG Version: 6.00 Build 0)  -->
<svg version="1.1" id="图层_1" xmlns="http://www.w3.org/2000/svg" xmlns:xlink="http://www.w3.org/1999/xlink" x="0px" y="0px"
	 viewBox="0 0 400 400" style="enable-background:new 0 0 400 400;" xml:space="preserve">
<style type="text/css">
	.st0{fill:#39A1FF;}
	.st1{fill:#2E37E8;}
	.st2{fill:#538048;}
</style>
<path class="st0" d="M161,328c-5,21-23,47-30.5,54.5C118,393,91.9,392.6,86.7,392.8C77.2,393.2,44,394,35,368
	c-5-18-6.3-44.8-3.2-59.9S52.2,271.5,55,269c2.3-2,16.6-18.3,18.8-21.3c10.2-13.6,31.1-43,31.9-44.6c-9.5,2.9-18.6,2.8-27.6,1.6
	C68,203.4,54.2,193.2,52,182c-1.3-6.7-1.8-13.4-2-20.2c-0.2-7.4,0.2-62.8-0.9-90.3S51,27,64,21.8c4.7-1.9,11.5-0.3,14.8,1.1
	C84,25,90.7,32.4,92.5,41.2C96,58,93,75,90.9,81c-1.5,5.1-7.6,41.7-9,47.5c-2.4,10.5-2.5,21.1-0.6,31.7c1,5.6,2.8,6.7,8,4.6
	c10.2-4,43.9-35.9,46.4-39.3c4.1-5.6,16.5-23.7,18.6-27.2c3.3-5.4,18.7-36.6,20.7-43.5s8.7-38.7,11.4-44.3
	c2.7-5.6,11.6-7.5,14.2-3.1C203,12,205,30,204,38s-2,25-5.5,34.4C195.2,82.5,192,92,188,103c-5,12-7,26-1,30c8,4,19-13.8,29.5-24.4
	c10.5-10.6,91.7-64,103.6-71.3s26.8-7.4,30.9-1.3s0.5,13.1-4,17c-7,6-25.3,15.1-31,18c-7.7,3.9-52.1,35.9-62.1,45
	c-3.3,3-6.6,6-9.5,9.3c-2.1,2.4-16.6,16.4-19.2,19.3c6,4,11.7,7.8,17.3,11.7C253,163.6,284,188,295,198c13.6,12.4,40.7,41.6,45,48.1
	c4.1,6.1,16.8,29.4,18.8,35.2c2.8,8.3,10,28.3,9.1,39c-0.9,10.7-1.8,24.7-5.8,33.7c-4.1,9-9.6,13.6-13.8,15.8
	c-4.2,2.2-16.4,2.1-19.5-7.3c-2-6.2-2.1-12.6-1.5-19c0.7-7.5,0-14.5-3.2-21.5C302,262,256.6,211.4,245,198c-13-15-35-31-42.5-36.7
	C200,164.4,183,184,177,217C172,244.8,168.6,296,161,328z M158.2,203.1C149,199,141,205,129,219c-5.2,5.9-29,30.6-31,34
	c-2.4,4.1-25,30-31,44s-6.6,19.7-6.3,30.9S77.3,350,83,353.1c8.1,4.4,17.3,5.6,26.5,5.1c6.3-0.3,17.5-6.2,20.5-14.2
	c2.8-6.4,14-43,19-62s7.8-37.6,9-51S162.4,205,158.2,203.1z"/>
</svg>
